<svg width="46" height="46" viewBox="0 0 46 46" fill="none" xmlns="http://www.w3.org/2000/svg">
<path d="M22.8856 17.5238H27.4627V10.9524H34.3284V6.57143H27.4627V0H22.8856V6.57143H16.0199V10.9524H22.8856M13.7313 37.2381C11.2139 37.2381 9.15423 39.2095 9.15423 41.619C9.15423 44.0286 11.2139 46 13.7313 46C16.2488 46 18.3085 44.0286 18.3085 41.619C18.3085 39.2095 16.2488 37.2381 13.7313 37.2381ZM36.6169 37.2381C34.0995 37.2381 32.0398 39.2095 32.0398 41.619C32.0398 44.0286 34.0995 46 36.6169 46C39.1343 46 41.194 44.0286 41.194 41.619C41.194 39.2095 39.1343 37.2381 36.6169 37.2381ZM14.1891 30.2286V30.0095L16.2488 26.2857H33.1841C34.7861 26.2857 36.3881 25.4095 37.0746 24.0952L46 8.7619L42.1094 6.57143L33.1841 21.9048H17.1642L7.55224 2.19048H0V6.57143H4.57711L12.8159 23.219L9.61194 28.4762C9.38308 29.1333 9.15423 29.7905 9.15423 30.6667C9.15423 33.0762 11.2139 35.0476 13.7313 35.0476H41.194V30.6667H14.6468C14.4179 30.6667 14.1891 30.4476 14.1891 30.2286Z" fill="#495E57"/>
</svg>
